<svg width="128" height="128" fill="none" xmlns="http://www.w3.org/2000/svg"><path fill-rule="evenodd" clip-rule="evenodd" d="M64 0c42.667 0 64 21.333 64 64s-21.333 64-64 64S0 106.667 0 64 21.333 0 64 0ZM41.29 101.133h1.476l-1 3.39c-.078.276-.136.482-.172.618-.032.13-.047.244-.047.343 0 .157.052.305.156.446.104.135.271.203.5.203.448 0 .896-.292 1.344-.875.453-.589.68-1.367.68-2.336 0-1.432-.615-2.461-1.844-3.086-.771-.396-1.638-.594-2.602-.594-1.77 0-3.192.542-4.265 1.625-.97.979-1.453 2.154-1.453 3.524 0 1.52.567 2.726 1.703 3.617 1.005.786 2.231 1.18 3.68 1.18a7.038 7.038 0 0 0 4.226-1.368l.187-.132.57.874a8.467 8.467 0 0 1-2.406 1.313 8.145 8.145 0 0 1-2.68.445c-2.16 0-3.835-.672-5.023-2.015-.984-1.115-1.476-2.435-1.476-3.961 0-1.709.614-3.156 1.843-4.344 1.292-1.255 2.946-1.883 4.961-1.883 1.641 0 3 .43 4.079 1.29 1.135.905 1.703 2.109 1.703 3.609 0 1.182-.36 2.198-1.078 3.046-.72.844-1.54 1.266-2.461 1.266-.48 0-.85-.135-1.11-.406-.255-.271-.383-.55-.383-.836v-.117l.016-.149a3.28 3.28 0 0 1-.664.899 2.291 2.291 0 0 1-1.594.601c-.63 0-1.156-.226-1.578-.679-.417-.453-.625-1.086-.625-1.899 0-.943.32-1.825.961-2.648.64-.823 1.427-1.235 2.36-1.235.546 0 .97.151 1.273.453.229.235.383.503.46.805l.282-.984Zm-3.368 4.687c.172.235.417.352.734.352.558 0 1.013-.422 1.367-1.266.36-.849.54-1.515.54-2 0-.276-.084-.508-.25-.695-.167-.188-.391-.281-.672-.281-.542 0-1.008.338-1.399 1.015-.39.672-.586 1.323-.586 1.953 0 .381.089.688.266.922Zm13.476 1.946 1.758-6.282h2.367l-2.921 8.375c-.563 1.615-1.008 2.615-1.336 3-.328.391-.985.586-1.97.586-.197 0-.356-.002-.476-.007-.12 0-.3-.008-.539-.024v-1.781l.282.015c.218.011.427.003.624-.023.198-.026.365-.086.5-.18.13-.088.25-.273.36-.554.114-.282.161-.453.14-.516l-3.124-8.891h2.476l1.86 6.282Zm9.727-4.227c-.896 0-1.497.292-1.805.875-.172.328-.258.833-.258 1.516V110H56.82v-8.516h2.125v1.485c.344-.568.644-.956.899-1.164.416-.349.958-.524 1.625-.524l.043.001a.665.665 0 0 1 .058.007c.032 0 .097.003.196.008v2.281a5.602 5.602 0 0 0-.641-.039Zm9.055-.977c.718.902 1.078 1.967 1.078 3.196 0 1.25-.36 2.32-1.078 3.211-.72.885-1.81 1.328-3.274 1.328-1.463 0-2.554-.443-3.273-1.328-.719-.891-1.078-1.961-1.078-3.211 0-1.229.36-2.294 1.078-3.196.719-.901 1.81-1.351 3.273-1.351 1.464 0 2.555.45 3.274 1.351Zm-3.282.532c-.65 0-1.153.232-1.507.695-.35.458-.524 1.115-.524 1.969 0 .854.175 1.513.524 1.976.354.464.856.696 1.507.696.651 0 1.151-.232 1.5-.696.35-.463.524-1.122.524-1.976 0-.854-.175-1.511-.524-1.969-.349-.463-.849-.695-1.5-.695Zm10.586 7.133c-.703 0-1.268-.141-1.695-.422-.255-.167-.531-.459-.828-.875V110h-2.18V98.5H75v4.094c.281-.396.591-.698.93-.906.4-.261.911-.391 1.53-.391 1.12 0 1.996.404 2.626 1.211.635.807.953 1.849.953 3.125 0 1.323-.312 2.419-.937 3.289-.625.87-1.498 1.305-2.618 1.305Zm1.22-4.36c0-.604-.079-1.104-.235-1.5-.297-.75-.844-1.125-1.64-1.125-.808 0-1.363.367-1.665 1.102-.156.39-.234.896-.234 1.515 0 .73.161 1.334.484 1.813.323.479.815.719 1.477.719.572 0 1.018-.232 1.336-.696.317-.463.476-1.073.476-1.828Zm11.038-3.305c.719.902 1.078 1.967 1.078 3.196 0 1.25-.36 2.32-1.078 3.211-.719.885-1.81 1.328-3.273 1.328-1.464 0-2.555-.443-3.274-1.328-.718-.891-1.078-1.961-1.078-3.211 0-1.229.36-2.294 1.078-3.196.72-.901 1.81-1.351 3.274-1.351 1.463 0 2.554.45 3.273 1.351Zm-3.281.532c-.651 0-1.154.232-1.508.695-.349.458-.523 1.115-.523 1.969 0 .854.174 1.513.523 1.976.354.464.857.696 1.508.696s1.151-.232 1.5-.696c.349-.463.523-1.122.523-1.976 0-.854-.174-1.511-.523-1.969-.349-.463-.849-.695-1.5-.695Zm9.86 5.32v1.664l-1.055.039c-1.053.037-1.771-.146-2.157-.547-.25-.255-.375-.648-.375-1.179v-5.243h-1.187v-1.586h1.187v-2.374h2.204v2.374h1.382v1.586h-1.382v4.5c0 .349.044.568.132.657.089.083.36.125.813.125h.21l.227-.016ZM14 51c0-6.627 5.373-12 12-12h76c6.627 0 12 5.373 12 12v26c0 6.627-5.373 12-12 12H26c-6.627 0-12-5.373-12-12V51Zm5.983 10.457c.662-.844 1.8-1.266 3.41-1.266 1.05 0 1.981.208 2.796.624.814.416 1.221 1.202 1.221 2.356v4.394c0 .305.006.674.018 1.108.017.328.067.55.15.668a.899.899 0 0 0 .368.29V70h-2.724a2.79 2.79 0 0 1-.159-.545 6.539 6.539 0 0 1-.07-.58 5.149 5.149 0 0 1-1.195.958c-.54.31-1.149.466-1.828.466-.867 0-1.585-.246-2.154-.739-.562-.498-.843-1.2-.843-2.109 0-1.178.454-2.03 1.362-2.557.498-.288 1.23-.493 2.197-.616l.853-.105c.463-.059.794-.132.993-.22.357-.152.536-.39.536-.712 0-.392-.138-.662-.413-.808-.27-.153-.668-.229-1.195-.229-.592 0-1.011.147-1.257.44-.176.216-.293.51-.352.879H19.28c.053-.838.287-1.527.703-2.066Zm1.864 6.732c.234.194.521.29.861.29.54 0 1.034-.158 1.485-.474.457-.316.695-.894.712-1.732v-.931c-.158.1-.32.181-.483.246a4.237 4.237 0 0 1-.66.167l-.562.105c-.527.094-.905.208-1.134.343-.386.229-.58.583-.58 1.064 0 .427.12.735.36.922Zm13.94.458c-.024.029-.083.117-.177.263a1.77 1.77 0 0 1-.334.387c-.392.351-.773.592-1.142.72-.364.13-.791.194-1.283.194-1.418 0-2.373-.51-2.866-1.53-.275-.562-.413-1.391-.413-2.487V60.42h2.567v5.774c0 .545.064.955.193 1.23.228.487.677.73 1.345.73.855 0 1.441-.345 1.758-1.037.164-.375.246-.87.246-1.485V60.42h2.54V70h-2.435v-1.353Zm9.245-.431v1.872l-1.186.044c-1.184.04-1.992-.164-2.426-.615-.281-.287-.422-.73-.422-1.328v-5.897h-1.336v-1.784h1.336v-2.672h2.479v2.672h1.555v1.784h-1.555v5.063c0 .392.05.638.149.738.1.093.404.14.914.14h.237l.255-.017Zm9.598-6.583c.808 1.014 1.213 2.212 1.213 3.595 0 1.406-.405 2.61-1.213 3.612-.809.996-2.036 1.494-3.683 1.494-1.646 0-2.874-.498-3.682-1.494-.809-1.002-1.213-2.206-1.213-3.612 0-1.383.404-2.581 1.213-3.595.808-1.014 2.036-1.52 3.682-1.52 1.647 0 2.874.506 3.683 1.52Zm-3.692.597c-.732 0-1.297.261-1.696.783-.392.515-.589 1.254-.589 2.215 0 .96.197 1.702.59 2.223.398.522.963.782 1.695.782.733 0 1.295-.26 1.688-.782.393-.521.589-1.262.589-2.223 0-.961-.196-1.7-.589-2.215-.393-.522-.955-.782-1.688-.782Zm5.95 1.565h5.046v2.373h-5.045v-2.373Zm13.351-2.936c.75.48 1.18 1.307 1.292 2.479h-2.505c-.035-.322-.126-.577-.272-.765-.276-.34-.744-.51-1.406-.51-.545 0-.935.085-1.17.255-.228.17-.342.37-.342.598 0 .287.123.495.37.624.245.135 1.115.366 2.61.694.995.235 1.743.59 2.24 1.064.493.48.739 1.08.739 1.802 0 .949-.355 1.725-1.064 2.329-.703.597-1.792.896-3.27.896-1.505 0-2.618-.316-3.339-.949-.715-.639-1.072-1.45-1.072-2.435h2.54c.053.446.167.762.343.95.31.334.884.5 1.722.5.492 0 .882-.073 1.17-.22.292-.146.439-.365.439-.658a.71.71 0 0 0-.352-.642c-.234-.146-1.104-.398-2.61-.756-1.084-.27-1.849-.606-2.294-1.01-.445-.399-.668-.973-.668-1.723 0-.885.345-1.644 1.037-2.276.697-.64 1.676-.959 2.936-.959 1.195 0 2.17.238 2.926.712Zm11.707 2.997H79.38a2.223 2.223 0 0 0-.36-.966c-.282-.387-.718-.58-1.31-.58-.844 0-1.42.418-1.731 1.256-.165.446-.247 1.037-.247 1.776 0 .703.082 1.268.246 1.696.3.797.862 1.195 1.688 1.195.586 0 1.002-.158 1.248-.474.246-.317.396-.727.448-1.23h2.558c-.059.761-.334 1.482-.826 2.161-.785 1.096-1.948 1.644-3.49 1.644-1.54 0-2.674-.457-3.4-1.371-.727-.914-1.09-2.1-1.09-3.56 0-1.646.4-2.926 1.203-3.84.803-.915 1.91-1.372 3.323-1.372 1.2 0 2.182.27 2.944.809.768.54 1.222 1.491 1.362 2.856Zm6.548-1.125c-1.008 0-1.684.329-2.03.985-.194.369-.29.937-.29 1.705V70H83.65v-9.58h2.391v1.67c.387-.639.724-1.075 1.01-1.31.47-.392 1.079-.589 1.829-.589.047 0 .085.003.114.01.035 0 .108.002.22.008v2.566a6.813 6.813 0 0 0-.72-.044Zm10.187-1.098c.808 1.014 1.213 2.212 1.213 3.595 0 1.406-.405 2.61-1.213 3.612-.809.996-2.037 1.494-3.683 1.494s-2.874-.498-3.683-1.494c-.808-1.002-1.212-2.206-1.212-3.612 0-1.383.404-2.581 1.212-3.595.809-1.014 2.037-1.52 3.683-1.52s2.874.506 3.683 1.52Zm-3.692.597c-.732 0-1.298.261-1.696.783-.393.515-.589 1.254-.589 2.215 0 .96.196 1.702.589 2.223.398.522.964.782 1.696.782.733 0 1.295-.26 1.688-.782.392-.521.589-1.262.589-2.223 0-.961-.197-1.7-.59-2.215-.392-.522-.954-.782-1.687-.782Zm6.759-5.185h2.505V70h-2.505V57.045Zm5.01 0h2.505V70h-2.505V57.045Z" fill="#000"/></svg>